<svg xmlns="http://www.w3.org/2000/svg" width="160" height="160" viewBox="0 0 160 160"><style type="text/css">.st0{stroke:#000000;stroke-width:2.1825;stroke-miterlimit:10;} .st1{enable-background:new ;}</style><path class="st0" d="M126.8 69.9c1.5 5.8 2.3 11.9 2.3 18.3v2.2l7.5 2.9 6.2-5.1 4.7 5.6-9.3 7.7-9.7-3.9c-1.1 8.6-3.7 16.5-7.5 23.5l1.3-1.8 7.3 4.1 6.9-4.2 3.9 6.2-10.3 6.3-11.4-6.7c-8.9 13.8-22.7 22.7-38.2 22.7-15.5 0-29.3-8.9-38.2-22.6l-11.3 6.6-10.3-6.3 3.9-6.2 6.9 4.2 7.3-4.2.5.7c-3.4-6.6-5.8-14.2-6.9-22.2l-9.4 3.8-9.3-7.7 4.7-5.6 6.2 5.1 7.2-2.8v-2.3c0-6.4.8-12.5 2.4-18.3l-12.2-.4-5.3-10.8 6.7-3.2 3.5 7.2 8.4.4.1 2.4c5-14.9 14.9-26.8 27.1-32.7.2-4.6 4-8.2 8.7-8.2h20.4c4.8 0 8.8 3.9 8.8 8.7 0 .2 0 .4-.1.6 11.6 6.3 20.7 18 25.4 32.5l.2-3.3 8.4-.4 3.5-7.2 6.6 3.2-5.3 10.8-12.3.4zM105.1 16.9l-1 2.6-1.5.7-3.1.8-2.6 1.6-3.6 2v-2l4.1-2.9 3-1 2.7-1.8 1.5-3 2.9-1-.8 2.8zM63.4 21l-3.1-.8-1.5-.7-.9-2.6-1.7-1.2-.8-2.8 3 1 1.5 3 2.6 1.8 3 1 4.2 2.9v2l-3.7-2z"/><g class="st1"><path d="M-78.8 126.8c0-.1-.1-.1-.1-.1s-.1-.1-.2-.1h-.2c-.1 0-.2 0-.3.1s-.2.1-.2.2c-.1.1-.1.2-.1.3v.6l.1.3c.1.1.1.2.2.2.1.1.2.1.3.1.2 0 .3-.1.4-.2.1-.1.2-.3.2-.4h.6c0 .2-.1.3-.1.4l-.2.3c-.1.1-.2.2-.4.2l-.4.1c-.2 0-.4 0-.5-.1s-.3-.2-.4-.3l-.3-.4c-.1-.2-.1-.3-.1-.5s0-.4.1-.6c.1-.2.1-.3.3-.4.1-.1.2-.2.4-.3s.3-.1.5-.1c.1 0 .3 0 .4.1.1 0 .2.1.3.2l.3.3c.1.1.1.3.1.4h-.6c0-.2 0-.3-.1-.3zM-77.3 126.8v.4l.1-.2c0-.1.1-.1.1-.1l.2-.1h.30000000000000004v.5h-.4s-.1.1-.2.1-.1.1-.1.2v1.1h-.5v-1.9h.5zM-75.8 128.2c.1.1.2.1.3.1.1 0 .2 0 .3-.1.1-.1.1-.1.1-.2h.5c-.1.2-.2.4-.3.5-.2.1-.3.1-.6.1-.2 0-.3 0-.4-.1-.1 0-.2-.1-.3-.2l-.2-.3-.1-.4c0-.1 0-.3.1-.4 0-.1.1-.2.2-.3s.2-.2.3-.2.3-.1.4-.1c.2 0 .3 0 .4.1.1.1.2.1.3.3.1.1.1.2.2.4v.4h-1.4c.1.2.1.4.2.4zm.6-1c-.1-.1-.2-.1-.3-.1h-.2c-.1 0-.1.1-.1.1l-.1.1v.1h.9c-.1 0-.2-.1-.2-.2zM-74.2 127.1l.2-.2.3-.1h.6c.1 0 .2 0 .3.1.1 0 .1.1.2.2s.1.2.1.3v1.2c0 .1 0 .1.1.2h-.6v-.2l-.3.2-.3.1h-.3l-.2-.1c-.1 0-.1-.1-.1-.2v-.3c0-.1 0-.2.1-.3l.1-.2s.1-.1.2-.1h.6000000000000001c.1 0 .1 0 .1-.1 0 0 .1-.1 0-.1v-.1s0-.1-.1-.1h-.2c-.1 0-.2 0-.2.1-.1 0-.1.1-.1.2h-.5c-.1-.4 0-.5 0-.5zm1 .7h-.5s-.1 0-.1.1v.2s0 .1.1.1h.2c.1 0 .2 0 .2-.1.1 0 .1-.1.1-.1v-.2zM-71.1 126.8v.4h-.4v1.1h.4v.4h-.5c-.1 0-.1 0-.2-.1-.1 0-.1-.1-.1-.1v-1.3h-.3v-.4h.3v-.6h.5v.6h.3zM-70.3 128.2c.1.1.2.1.3.1.1 0 .2 0 .3-.1.1-.1.1-.1.1-.2h.5c-.1.2-.2.4-.3.5-.2.1-.3.1-.6.1-.2 0-.3 0-.4-.1-.1 0-.2-.1-.3-.2l-.2-.3-.1-.4c0-.1 0-.3.1-.4 0-.1.1-.2.2-.3s.2-.2.3-.2.3-.1.4-.1c.2 0 .3 0 .4.1.1.1.2.1.3.3.1.1.1.2.2.4v.4h-1.4l.2.4zm.6-1c-.1-.1-.2-.1-.3-.1h-.2c-.1 0-.1.1-.1.1l-.1.1v.1h.9c-.1 0-.1-.1-.2-.2zM-67.3 128.4c-.1.1-.1.2-.2.2l-.3.1c-.1 0-.3 0-.4-.1l-.3-.2s-.1-.2-.2-.3l-.1-.4c0-.1 0-.3.1-.4 0-.1.1-.2.2-.3.1-.1.2-.2.3-.2.1-.1.2-.1.4-.1.1 0 .2 0 .3.1.1 0 .2.1.2.2v-1h.5v2.6h-.5v-.2zm-.1-.9c0-.1 0-.1-.1-.2 0-.1-.1-.1-.1-.1l-.2-.1s-.2 0-.2.1c-.1 0-.1.1-.1.1l-.1.2v.4c0 .1 0 .1.1.2 0 .1.1.1.1.1l.2.1c.1 0 .2 0 .2-.1.1 0 .1-.1.1-.1l.1-.2v-.4zM-64.9 126v1c.1-.1.2-.2.3-.2l.3-.1c.1 0 .2 0 .3.1.1 0 .2.1.3.2l.2.3c0 .1.1.3.1.5s0 .3-.1.5c0 .1-.1.2-.2.3s-.2.1-.3.2l-.3.1c-.1 0-.3 0-.4-.1-.1 0-.2-.1-.3-.2v.2h-.5v-2.8h.6zm.9 1.5c0-.1 0-.1-.1-.2 0-.1-.1-.1-.1-.1h-.4c-.1 0-.1.1-.1.1s-.1.1-.1.2v.4c0 .1 0 .1.1.2l.1.1s.1.1.2.1.1 0 .2-.1l.1-.1.1-.2v-.4zM-62.4 129.3c-.1.1-.2.1-.4.1h-.4v-.4h.4c.1 0 .1 0 .2-.1 0 0 .1-.1.1-.2v-.1l-.7-1.8h.6l.4 1.3.4-1.3h.5l-.8 2.2c-.2.1-.2.2-.3.3zM-58.8 126l1 2.6h-.6l-.2-.6h-1l-.2.6h-.6l1-2.6h.6zm0 1.7l-.3-1-.3 1h.6zM-57.2 126.8v.3c.1-.1.2-.2.3-.2.1-.1.2-.1.3-.1.1 0 .3 0 .3.1s.2.1.2.2c.1.1.1.2.1.2v1.5h-.5v-1.1c0-.2 0-.3-.1-.4 0-.1-.1-.1-.3-.1-.1 0-.2 0-.3.1-.1.1-.1.2-.1.4v1h-.5v-1.9h.6zM-54.1 128.4c-.1.1-.1.2-.2.2l-.3.1c-.1 0-.3 0-.4-.1l-.3-.2s-.1-.2-.2-.3l-.1-.4c0-.1 0-.3.1-.4 0-.1.1-.2.2-.3.1-.1.2-.2.3-.2.1-.1.2-.1.4-.1.1 0 .2 0 .3.1.1 0 .2.1.2.2v-1h.5v2.6h-.5v-.2zm0-.9c0-.1 0-.1-.1-.2 0-.1-.1-.1-.1-.1l-.2-.1s-.2 0-.2.1c-.1 0-.1.1-.1.1l-.1.2v.4c0 .1 0 .1.1.2 0 .1.1.1.1.1l.2.1c.1 0 .2 0 .2-.1.1 0 .1-.1.1-.1l.1-.2v-.4zM-52.7 126.8v.4l.1-.2c0-.1.1-.1.1-.1l.2-.1h.30000000000000004v.5h-.4s-.1.1-.2.1-.1.1-.1.2v1.1h-.5v-1.9h.5zM-51.3 128.2c.1.1.2.1.3.1.1 0 .2 0 .3-.1.1-.1.1-.1.1-.2h.5c-.1.2-.2.4-.3.5-.2.1-.3.1-.6.1-.2 0-.3 0-.4-.1-.1 0-.2-.1-.3-.2l-.2-.3-.1-.4c0-.1 0-.3.1-.4 0-.1.1-.2.2-.3s.2-.2.3-.2.3-.1.4-.1c.2 0 .3 0 .4.1.1.1.2.1.3.3.1.1.1.2.2.4v.4h-1.4l.2.4zm.6-1c-.1-.1-.2-.1-.3-.1h-.2c-.1 0-.1.1-.1.1l-.1.1v.1h.9c-.1 0-.1-.1-.2-.2zM-49 129.3c-.1.1-.2.1-.4.1h-.4v-.4h.4c.1 0 .1 0 .2-.1 0 0 .1-.1.1-.2v-.1l-.7-1.8h.6l.4 1.3.4-1.3h.5l-.8 2.2-.3.3zM-46.3 128c0 .1.1.1.1.1l.2.1h.6000000000000001c.1 0 .1-.1.1-.1s.1-.1.1-.2 0-.1-.1-.2c0 0-.1-.1-.2-.1l-.3-.1s-.2 0-.3-.1l-.3-.1s-.2-.1-.3-.1l-.2-.2-.1-.3c0-.1 0-.3.1-.4.1-.1.1-.2.2-.2s.2-.1.3-.1h.8c.1 0 .2.1.3.2.1.1.2.2.2.3.1.1.1.2.1.4h-.6c0-.1 0-.1-.1-.2l-.1-.1s-.1-.1-.2-.1h-.30000000000000004s-.1 0-.1.1l-.1.1v.2l.1.1.2.1c.1 0 .2.1.4.1 0 0 .1 0 .2.1l.3.1c.1.1.2.1.2.2.1.1.1.2.1.4 0 .1 0 .2-.1.3 0 .1-.1.2-.2.3s-.2.1-.3.2c-.1 0-.3.1-.5.1-.1 0-.3 0-.4-.1-.1 0-.3-.1-.4-.2-.1-.1-.2-.2-.2-.3-.1-.1-.1-.3-.1-.4h.6c.3 0 .3.1.3.1zM-43.8 128.2c.1.1.2.1.3.1.1 0 .2 0 .3-.1.1-.1.1-.1.1-.2h.5c-.1.2-.2.4-.3.5-.2.1-.3.1-.6.1-.2 0-.3 0-.4-.1-.1 0-.2-.1-.3-.2l-.2-.3-.1-.4c0-.1 0-.3.1-.4 0-.1.1-.2.2-.3s.2-.2.3-.2.3-.1.4-.1c.2 0 .3 0 .4.1.1.1.2.1.3.3.1.1.1.2.2.4v.4h-1.4c.1.2.1.4.2.4zm.6-1c-.1-.1-.2-.1-.3-.1h-.2c-.1 0-.1.1-.1.1l-.1.1v.1h.9c-.1 0-.1-.1-.2-.2zM-41.7 126.8v.3l.2-.2c.1-.1.2-.1.3-.1.1 0 .2 0 .3.1.1 0 .2.1.2.2.1-.1.1-.2.2-.2.1-.1.2-.1.3-.1h.3c.1 0 .2.1.2.1.1.1.1.1.1.2s.1.2.1.3v1.3h-.5v-1.4000000000000001l-.1-.1h-.4l-.1.1s0 .1-.1.2v1.3h-.3v-1.5s0-.1-.1-.1h-.30000000000000004s-.1 0-.1.1l-.1.1v1.3h-.5v-1.9h.4zM-38.3 128.2c.1.1.2.1.3.1.1 0 .2 0 .3-.1.1-.1.1-.1.1-.2h.5c-.1.2-.2.4-.3.5-.2.1-.3.1-.6.1-.2 0-.3 0-.4-.1-.1 0-.2-.1-.3-.2l-.2-.3-.1-.4c0-.1 0-.3.1-.4 0-.1.1-.2.2-.3s.2-.2.3-.2.3-.1.4-.1c.2 0 .3 0 .4.1.1.1.2.1.3.3.1.1.1.2.2.4v.4h-1.4c.1.2.1.4.2.4zm.6-1c-.1-.1-.2-.1-.3-.1h-.2c-.1 0-.1.1-.1.1l-.1.1v.1h.9c-.1 0-.1-.1-.2-.2zM-36.2 126.8v.3c.1-.1.2-.2.3-.2.1-.1.2-.1.3-.1.1 0 .3 0 .3.1s.2.1.2.2c.1.1.1.2.1.2v1.5h-.5v-1.1c0-.2 0-.3-.1-.4 0-.1-.1-.1-.3-.1-.1 0-.2 0-.3.1-.1.1-.1.2-.1.4v1h-.5v-1.9h.6zM-34 128.2c.1.1.2.1.3.1.1 0 .2 0 .3-.1.1-.1.1-.1.1-.2h.5c-.1.2-.2.4-.3.5-.2.1-.3.1-.6.1-.2 0-.3 0-.4-.1-.1 0-.2-.1-.3-.2l-.2-.3-.1-.4c0-.1 0-.3.1-.4 0-.1.1-.2.2-.3s.2-.2.3-.2.3-.1.4-.1c.2 0 .3 0 .4.1.1.1.2.1.3.3.1.1.1.2.2.4v.4h-1.4c.1.2.1.4.2.4zm.6-1c-.1-.1-.2-.1-.3-.1h-.2c-.1 0-.1.1-.1.1l-.1.1v.1h.9c-.1 0-.1-.1-.2-.2zM-31.9 126.8v.3c.1-.1.2-.2.3-.2.1-.1.2-.1.3-.1.1 0 .3 0 .3.1s.2.1.2.2c.1.1.1.2.1.2v1.5h-.5v-1.1c0-.2 0-.3-.1-.4 0-.1-.1-.1-.3-.1-.1 0-.2 0-.3.1-.1.1-.1.2-.1.4v1h-.5v-1.9h.6zM-29.6 126v1.4l.7-.7h.6l-.7.7.8 1.2h-.6l-.5-.9-.2.2v.7h-.5v-2.6h.4zM-28.1 127.3c0-.1.1-.2.2-.3s.2-.2.3-.2l.4-.1c.2 0 .3 0 .4.1.1 0 .2.1.3.2s.2.2.2.3.1.3.1.4 0 .3-.1.4c0 .1-.1.2-.2.3s-.2.2-.3.2l-.4.1c-.2 0-.3 0-.4-.1s-.2-.1-.3-.2-.2-.2-.2-.3l-.1-.4s.1-.3.1-.4zm.5.7c0 .1 0 .1.1.2 0 .1.1.1.1.1l.2.1c.1 0 .2 0 .2-.1.1 0 .1-.1.1-.1l.1-.2v-.4c0-.1 0-.1-.1-.2 0-.1-.1-.1-.1-.1l-.2-.1c-.1 0-.2 0-.2.1-.1 0-.1.1-.1.1l-.1.2v.4z"/></g><g class="st1"><path d="M-80.7 130.8v-.4h.3v-.1c0-.2.1-.3.2-.4.1-.1.3-.2.5-.2h.2v.4h-.2c-.1 0-.1 0-.2.1v.30000000000000004h.4v.4h-.4v1.6h-.5v-1.6h-.3zM-78.8 130.5v.4l.1-.2.1-.1.2-.1h.30000000000000004v.5h-.4l-.2.1s-.1.1-.1.2v1.1h-.5v-1.9h.5zM-77.9 131c0-.1.1-.2.2-.3.1-.1.2-.2.3-.2l.4-.1c.2 0 .3 0 .4.1.1 0 .2.1.3.2.1.1.2.2.2.3l.1.4c0 .2 0 .3-.1.4 0 .1-.1.2-.2.3-.1.1-.2.2-.3.2l-.4.1c-.2 0-.3 0-.4-.1s-.2-.1-.3-.2c-.1-.1-.2-.2-.2-.3l-.1-.4.1-.4zm.5.7c0 .1 0 .1.1.2 0 .1.1.1.1.1l.2.1c.1 0 .2 0 .2-.1.1 0 .1-.1.1-.1l.1-.2v-.4c0-.1 0-.1-.1-.2l-.1-.1-.2-.1c-.1 0-.2 0-.2.1-.1 0-.1.1-.1.1l-.1.2v.4zM-75.1 130.5v.3l.2-.2c.1-.1.2-.1.3-.1.1 0 .2 0 .3.1.1 0 .2.1.2.2.1-.1.1-.2.2-.2.1-.1.2-.1.3-.1h.3c.1 0 .2.1.2.1.1.1.1.1.1.2s.1.2.1.3v1.3h-.5v-1.4000000000000001l-.1-.1h-.4l-.1.1s0 .1-.1.2v1.3h-.5v-1.5s0-.1-.1-.1h-.30000000000000004s-.1 0-.1.1l-.1.1v1.3h-.5v-1.9h.6zM-70.2 130.5v.4h-.4v1.1h.4v.4h-.5c-.1 0-.1 0-.2-.1-.1 0-.1-.1-.1-.1v-1.3h-.3v-.4h.3v-.6h.5v.6h.3zM-69.4 129.8v1c.1-.1.2-.2.3-.2.1-.1.2-.1.3-.1.1 0 .3 0 .3.1.1 0 .2.1.2.2.1.1.1.2.1.2v1.5h-.5v-1.1c0-.2 0-.3-.1-.4 0-.1-.1-.1-.3-.1-.1 0-.2 0-.3.1-.1.1-.1.2-.1.4v1h-.5v-2.6h.6zM-67.2 131.9c.1.1.2.1.3.1.1 0 .2 0 .3-.1.1-.1.1-.1.1-.2h.5c-.1.2-.2.4-.3.5-.2.1-.3.1-.6.1-.2 0-.3 0-.4-.1-.1 0-.2-.1-.3-.2l-.2-.3-.1-.4c0-.1 0-.3.1-.4 0-.1.1-.2.2-.3s.2-.2.3-.2c.1-.1.3-.1.4-.1.2 0 .3 0 .4.1.1.1.2.1.3.3.1.1.1.2.2.4v.4h-1.4c.1.2.1.4.2.4zm.6-1c-.1-.1-.2-.1-.3-.1h-.2c-.1 0-.1.1-.1.1l-.1.1v.1h.9c-.1 0-.1-.1-.2-.2zM-64 129.8l1.1 1.8v-1.8h.5v2.6h-.6l-1.1-1.8v1.8h-.5v-2.6h.6zM-61.8 131c0-.1.1-.2.2-.3.1-.1.2-.2.3-.2l.4-.1c.2 0 .3 0 .4.1.1 0 .2.1.3.2.1.1.2.2.2.3l.1.4c0 .2 0 .3-.1.4 0 .1-.1.2-.2.3-.1.1-.2.2-.3.2l-.4.1c-.2 0-.3 0-.4-.1s-.2-.1-.3-.2c-.1-.1-.2-.2-.2-.3l-.1-.4c0-.1 0-.3.1-.4zm.4.7c0 .1 0 .1.1.2 0 .1.1.1.1.1l.2.1c.1 0 .2 0 .2-.1.1 0 .1-.1.1-.1l.1-.2v-.4c0-.1 0-.1-.1-.2l-.1-.1-.2-.1c-.1 0-.2 0-.2.1-.1 0-.1.1-.1.1l-.1.2v.4zM-58.3 132.4v-.3c-.1.1-.2.2-.3.2l-.3.1c-.1 0-.3 0-.3-.1s-.2-.1-.2-.2l-.1-.2v-1.5h.5v1.1c0 .2 0 .3.1.4 0 .1.1.1.3.1.1 0 .2 0 .3-.1.1-.1.1-.2.1-.4v-1h.5v1.9h-.6zM-56.9 130.5v.3c.1-.1.2-.2.3-.2.1-.1.2-.1.3-.1.1 0 .3 0 .3.1.1 0 .2.1.2.2.1.1.1.2.1.2v1.5h-.5v-1.1c0-.2 0-.3-.1-.4 0-.1-.1-.1-.3-.1-.1 0-.2 0-.3.1-.1.1-.1.2-.1.4v1h-.5v-1.9h.6zM-52.9 129.8c.2 0 .3 0 .4.1.1 0 .2.1.3.2s.1.2.2.3v.6c0 .1-.1.2-.2.3l-.3.2-.4.1h-.6v.9h-.6v-2.6h1.2zm-.2 1.2h.2s.1 0 .2-.1l.1-.1v-.4c0-.1-.1-.1-.1-.1s-.1 0-.2-.1h-.7v.8h.5zM-51.2 130.5v.4l.1-.2.1-.1.2-.1h.30000000000000004v.5h-.4l-.2.1s-.1.1-.1.2v1.1h-.5v-1.9h.5zM-50.3 131c0-.1.1-.2.2-.3.1-.1.2-.2.3-.2l.4-.1c.2 0 .3 0 .4.1.1 0 .2.1.3.2.1.1.2.2.2.3l.1.4c0 .2 0 .3-.1.4 0 .1-.1.2-.2.3-.1.1-.2.2-.3.2l-.4.1c-.2 0-.3 0-.4-.1s-.2-.1-.3-.2c-.1-.1-.2-.2-.2-.3l-.1-.4c0-.1 0-.3.1-.4zm.5.7c0 .1 0 .1.1.2 0 .1.1.1.1.1l.2.1c.1 0 .2 0 .2-.1.1 0 .1-.1.1-.1l.1-.2v-.4c0-.1 0-.1-.1-.2l-.1-.1-.2-.1c-.1 0-.2 0-.2.1-.1 0-.1.1-.1.1l-.1.2v.4zM-48.2 132.6h.1l.1-.1v-2h.5v2.3s-.1.1-.1.2l-.2.1h-.5v-.4c0-.1 0-.1.1-.1zm.2-2.4v-.4h.5v.4h-.5zM-46.5 131.9c.1.1.2.1.3.1.1 0 .2 0 .3-.1.1-.1.1-.1.1-.2h.5c-.1.2-.2.4-.3.5-.2.1-.3.1-.6.1-.2 0-.3 0-.4-.1-.1 0-.2-.1-.3-.2l-.2-.3-.1-.4c0-.1 0-.3.1-.4 0-.1.1-.2.2-.3s.2-.2.3-.2c.1-.1.3-.1.4-.1.2 0 .3 0 .4.1.1.1.2.1.3.3.1.1.1.2.2.4v.4h-1.4l.2.4zm.6-1c-.1-.1-.2-.1-.3-.1h-.2c-.1 0-.1.1-.1.1l-.1.1v.1h.9c-.1 0-.1-.1-.2-.2zM-44 130.8c-.1 0-.2 0-.2.1-.1 0-.1.1-.1.1l-.1.2v.4c0 .1 0 .1.1.2 0 .1.1.1.1.1l.2.1c.1 0 .2 0 .3-.1s.1-.2.1-.3h.5c0 .3-.1.4-.3.6s-.4.2-.6.2c-.1 0-.3 0-.4-.1-.1 0-.2-.1-.3-.2s-.1-.2-.2-.3l-.1-.4c0-.1 0-.3.1-.4 0-.1.1-.2.2-.3.1-.1.2-.2.3-.2.1-.1.3-.1.4-.1h.3s.2.1.3.1c.1.1.2.1.2.2s.1.2.1.3h-.5c0-.1-.2-.2-.4-.2zM-41.7 130.5v.4h-.4v1.1h.4v.4h-.5c-.1 0-.1 0-.2-.1-.1 0-.1-.1-.1-.1v-1.3h-.5v-.4h.3v-.6h.5v.6h.5z"/></g></svg>